[h264 @ 0x561f20d82d00] Reinit context to 480x864, pix_fmt: yuv420p
Input #0, mov,mp4,m4a,3gp,3g2,mj2, from '/var/www/html/project/media/video/original/VID-20251214-WA0002.mp4':
  Metadata:
    major_brand     : mp42
    minor_version   : 0
    compatible_brands: mp42isom
  Duration: 00:00:43.61, start: 0.000000, bitrate: 1544 kb/s
    Stream #0:0(und): Video: h264 (High), 1 reference frame (avc1 / 0x31637661), yuv420p(tv, bt709, left), 478x850 (480x864), 1288 kb/s, 29.98 fps, 120 tbr, 90k tbn, 180k tbc (default)
    Stream #0:1(und): Audio: aac (LC) (mp4a / 0x6134706D), 48000 Hz, stereo, fltp, 255 kb/s (default)
Input #1, png_pipe, from '/var/www/html/project/static/images/templates/logo_vertical.png':
  Duration: N/A, bitrate: N/A
    Stream #1:0: Video: png, 1 reference frame, rgba(pc), 1920x1080 [SAR 2835:2835 DAR 16:9], 25 tbr, 25 tbn, 25 tbc
[h264 @ 0x561f20ddfd80] Reinit context to 1280x720, pix_fmt: yuv420p
Input #2, mov,mp4,m4a,3gp,3g2,mj2, from '/var/www/html/project/static/images/templates/Codino.mp4':
  Metadata:
    major_brand     : mp42
    minor_version   : 1
    compatible_brands: isommp41mp42
    creation_time   : 2021-07-11T07:02:58.000000Z
  Duration: 00:00:02.00, start: 0.000000, bitrate: 1007 kb/s
    Stream #2:0(ita): Audio: aac (LC) (mp4a / 0x6134706D), 44100 Hz, stereo, fltp, 102 kb/s (default)
    Metadata:
      creation_time   : 2021-07-11T07:02:58.000000Z
      handler_name    : Core Media Audio
    Stream #2:1(und): Video: h264 (High), 1 reference frame (avc1 / 0x31637661), yuv420p(tv, bt709, progressive, left), 1280x720 [SAR 1:1 DAR 16:9], 813 kb/s, 25 fps, 25 tbr, 25k tbn, 50k tbc (default)
    Metadata:
      creation_time   : 2021-07-11T07:02:58.000000Z
      handler_name    : Core Media Video
[Parsed_scale_1 @ 0x561f20dd1ec0] w:1280 h:720 flags:'bilinear' interl:0
[Parsed_scale_4 @ 0x561f20ec8c40] w:-1 h:720 flags:'bilinear' interl:0
[Parsed_scale_7 @ 0x561f20ec6880] w:1280 h:720 flags:'bilinear' interl:0
[Parsed_scale_9 @ 0x561f20dd0980] w:1280 h:720 flags:'bilinear' interl:0
Stream mapping:
  Stream #0:0 (h264) -> split
  Stream #0:1 (aac) -> concat:in0:a0
  Stream #1:0 (png) -> scale
  Stream #2:0 (aac) -> concat:in1:a0
  Stream #2:1 (h264) -> scale
  concat:out:v0 -> Stream #0:0 (libx264)
  concat:out:a0 -> Stream #0:1 (aac)
Press [q] to stop, [?] for help
[h264 @ 0x561f20e40dc0] Reinit context to 480x864, pix_fmt: yuv420p
[h264 @ 0x561f21229480] Reinit context to 1280x720, pix_fmt: yuv420p
[Parsed_scale_1 @ 0x561f21d4c900] w:1280 h:720 flags:'bilinear' interl:0
[Parsed_scale_4 @ 0x561f21d56580] w:-1 h:720 flags:'bilinear' interl:0
[Parsed_scale_7 @ 0x561f21d5a180] w:1280 h:720 flags:'bilinear' interl:0
[Parsed_scale_9 @ 0x561f21d5b940] w:1280 h:720 flags:'bilinear' interl:0
[graph 0 input from stream 0:0 @ 0x561f21d601c0] w:478 h:850 pixfmt:yuv420p tb:1/90000 fr:120/1 sar:0/1 sws_param:flags=2
[graph 0 input from stream 1:0 @ 0x561f21d4c6c0] w:1920 h:1080 pixfmt:rgba tb:1/25 fr:25/1 sar:2835/2835 sws_param:flags=2
[graph 0 input from stream 2:1 @ 0x561f21d56680] w:1280 h:720 pixfmt:yuv420p tb:1/25000 fr:25/1 sar:1/1 sws_param:flags=2
[graph_0_in_0_1 @ 0x561f21d55fc0] tb:1/48000 samplefmt:fltp samplerate:48000 chlayout:0x3
[graph_0_in_2_0 @ 0x561f21d5b4c0] tb:1/44100 samplefmt:fltp samplerate:44100 chlayout:0x3
[Parsed_concat_12 @ 0x561f21d5e240] auto-inserting filter 'auto_resampler_0' between the filter 'graph_0_in_2_0' and the filter 'Parsed_concat_12'
[Parsed_scale_1 @ 0x561f21d4c900] w:478 h:850 fmt:yuv420p sar:0/1 -> w:1280 h:720 fmt:yuv420p sar:0/1 flags:0x2
[Parsed_boxblur_2 @ 0x561f20e360c0] luma_radius:36 luma_power:1 chroma_radius:18 chroma_power:1 alpha_radius:36 alpha_power:1 w:1280 chroma_w:640 h:720 chroma_h:360
[Parsed_setsar_3 @ 0x561f21d56780] w:1280 h:720 sar:0/1 dar:16/9 -> sar:1/1 dar:16/9
[Parsed_scale_4 @ 0x561f21d56580] w:478 h:850 fmt:yuv420p sar:0/1 -> w:405 h:720 fmt:yuva420p sar:0/1 flags:0x2
[Parsed_setsar_5 @ 0x561f20e36440] w:405 h:720 sar:0/1 dar:9/16 -> sar:1/1 dar:9/16
[Parsed_overlay_6 @ 0x561f21d58c00] main w:1280 h:720 fmt:yuv420p overlay w:405 h:720 fmt:yuva420p
[Parsed_overlay_6 @ 0x561f21d58c00] [framesync @ 0x561f21d59268] Selected 1/90000 time base
[Parsed_overlay_6 @ 0x561f21d58c00] [framesync @ 0x561f21d59268] Sync level 2
[Parsed_scale_7 @ 0x561f21d5a180] w:1920 h:1080 fmt:rgba sar:2835/2835 -> w:1280 h:720 fmt:yuva420p sar:1/1 flags:0x2
[Parsed_setsar_8 @ 0x561f21d5ad00] w:1280 h:720 sar:1/1 dar:16/9 -> sar:1/1 dar:16/9
[Parsed_overlay_11 @ 0x561f21d5d100] main w:1280 h:720 fmt:yuv420p overlay w:1280 h:720 fmt:yuva420p
[Parsed_overlay_11 @ 0x561f21d5d100] [framesync @ 0x561f21d5d268] Selected 1/90000 time base
[Parsed_overlay_11 @ 0x561f21d5d100] [framesync @ 0x561f21d5d268] Sync level 2
[Parsed_scale_9 @ 0x561f21d5b940] w:1280 h:720 fmt:yuv420p sar:1/1 -> w:1280 h:720 fmt:yuv420p sar:1/1 flags:0x2
[Parsed_setsar_10 @ 0x561f21d5c400] w:1280 h:720 sar:1/1 dar:16/9 -> sar:1/1 dar:16/9
[auto_resampler_0 @ 0x561f21d69f40] ch:2 chl:stereo fmt:fltp r:44100Hz -> ch:2 chl:stereo fmt:fltp r:48000Hz
[libx264 @ 0x561f20df0bc0] using SAR=1/1
[libx264 @ 0x561f20df0bc0] using cpu capabilities: MMX2 SSE2Fast SSSE3 SSE4.2 AVX FMA3 BMI2 AVX2
[libx264 @ 0x561f20df0bc0] profile High, level 4.2
[libx264 @ 0x561f20df0bc0] 264 - core 155 r2917 0a84d98 - H.264/MPEG-4 AVC codec - Copyleft 2003-2018 - http://www.videolan.org/x264.html - options: cabac=1 ref=1 deblock=1:0:0 analyse=0x3:0x113 me=hex subme=2 psy=1 psy_rd=1.00:0.00 mixed_ref=0 me_range=16 chroma_me=1 trellis=0 8x8dct=1 cqm=0 deadzone=21,11 fast_pskip=1 chroma_qp_offset=0 threads=22 lookahead_threads=5 sliced_threads=0 nr=0 decimate=1 interlaced=0 bluray_compat=0 constrained_intra=0 bframes=3 b_pyramid=2 b_adapt=1 b_bias=0 direct=1 weightb=1 open_gop=0 weightp=1 keyint=250 keyint_min=25 scenecut=40 intra_refresh=0 rc_lookahead=10 rc=crf mbtree=1 crf=18.0 qcomp=0.60 qpmin=0 qpmax=69 qpstep=4 ip_ratio=1.40 aq=1:1.00
Output #0, mp4, to '/var/www/html/project/media/video/watermarks/VID-20251214-WA0002.mp4':
  Metadata:
    major_brand     : mp42
    minor_version   : 0
    compatible_brands: mp42isom
    encoder         : Lavf58.29.100
    Stream #0:0: Video: h264 (libx264), 1 reference frame (avc1 / 0x31637661), yuv420p(progressive), 1280x720 [SAR 1:1 DAR 16:9], q=-1--1, 120 fps, 15360 tbn, 120 tbc (default)
    Metadata:
      encoder         : Lavc58.54.100 libx264
    Side data:
      cpb: bitrate max/min/avg: 0/0/0 buffer size: 0 vbv_delay: -1
    Stream #0:1: Audio: aac (LC) (mp4a / 0x6134706D), 48000 Hz, stereo, fltp, delay 1024, 128 kb/s (default)
    Metadata:
      encoder         : Lavc58.54.100 aac
[Parsed_overlay_6 @ 0x561f21d58c00] [framesync @ 0x561f21d59268] Sync level 1
[Parsed_overlay_6 @ 0x561f21d58c00] [framesync @ 0x561f21d59268] Sync level 0
[Parsed_overlay_11 @ 0x561f21d5d100] [framesync @ 0x561f21d5d268] Sync level 0
[Parsed_concat_12 @ 0x561f21d5e240] EOF on in0:v0, 1 streams left in segment.
[Parsed_concat_12 @ 0x561f21d5e240] EOF on in0:a0, 0 streams left in segment.
[Parsed_concat_12 @ 0x561f21d5e240] Segment finished at pts=43610541
[Parsed_concat_12 @ 0x561f21d5e240] EOF on in1:v0, 1 streams left in segment.
[Parsed_concat_12 @ 0x561f21d5e240] EOF on in1:a0, 0 streams left in segment.
[Parsed_concat_12 @ 0x561f21d5e240] Segment finished at pts=45629228
No more output streams to write to, finishing.
frame= 1354 fps= 60 q=-1.0 Lsize=    9630kB time=00:00:45.63 bitrate=1728.6kbits/s speed=2.02x    
[AVIOContext @ 0x561f20d80f80] Statistics: 0 seeks, 45 writeouts
video:8842kB audio:737kB subtitle:0kB other streams:0kB global headers:0kB muxing overhead: 0.525568%
Input file #0 (/var/www/html/project/media/video/original/VID-20251214-WA0002.mp4):
  Input stream #0:0 (video): 1304 packets read (7002731 bytes); 1304 frames decoded; 
  Input stream #0:1 (audio): 2044 packets read (1395371 bytes); 2044 frames decoded (2093056 samples); 
  Total: 3348 packets (8398102 bytes) demuxed
Input file #1 (/var/www/html/project/static/images/templates/logo_vertical.png):
  Input stream #1:0 (video): 1 packets read (93903 bytes); 1 frames decoded; 
  Total: 1 packets (93903 bytes) demuxed
Input file #2 (/var/www/html/project/static/images/templates/Codino.mp4):
  Input stream #2:0 (audio): 89 packets read (26579 bytes); 87 frames decoded (89024 samples); 
  Input stream #2:1 (video): 50 packets read (203365 bytes); 50 frames decoded; 
  Total: 139 packets (229944 bytes) demuxed
Output file #0 (/var/www/html/project/media/video/watermarks/VID-20251214-WA0002.mp4):
  Output stream #0:0 (video): 1354 frames encoded; 1354 packets muxed (9054715 bytes); 
  Output stream #0:1 (audio): 2139 frames encoded (2189953 samples); 2140 packets muxed (754868 bytes); 
  Total: 3494 packets (9809583 bytes) muxed
[AVIOContext @ 0x561f20df2000] Statistics: 2 seeks, 41 writeouts
[libx264 @ 0x561f20df0bc0] frame I:7     Avg QP:12.42  size: 43452
[libx264 @ 0x561f20df0bc0] frame P:356   Avg QP:16.12  size: 15102
[libx264 @ 0x561f20df0bc0] frame B:991   Avg QP:17.99  size:  3404
[libx264 @ 0x561f20df0bc0] consecutive B-frames:  2.0%  1.2%  0.2% 96.6%
[libx264 @ 0x561f20df0bc0] mb I  I16..4: 39.3% 31.8% 28.9%
[libx264 @ 0x561f20df0bc0] mb P  I16..4: 13.9% 11.5%  1.2%  P16..4: 29.9% 14.1%  6.2%  0.0%  0.0%    skip:23.2%
[libx264 @ 0x561f20df0bc0] mb B  I16..4:  1.0%  0.2%  0.0%  B16..8: 19.3%  5.5%  0.3%  direct: 9.7%  skip:63.9%  L0:39.7% L1:52.4% BI: 7.9%
[libx264 @ 0x561f20df0bc0] 8x8 transform intra:39.4% inter:31.6%
[libx264 @ 0x561f20df0bc0] coded y,uvDC,uvAC intra: 29.7% 49.9% 10.1% inter: 5.2% 20.0% 0.6%
[libx264 @ 0x561f20df0bc0] i16 v,h,dc,p: 33% 39% 10% 18%
[libx264 @ 0x561f20df0bc0] i8 v,h,dc,ddl,ddr,vr,hd,vl,hu: 14% 36% 21%  4%  5%  4%  7%  3%  5%
[libx264 @ 0x561f20df0bc0] i4 v,h,dc,ddl,ddr,vr,hd,vl,hu: 21% 24% 19%  5%  9%  6%  8%  4%  5%
[libx264 @ 0x561f20df0bc0] i8c dc,h,v,p: 47% 30%  9% 14%
[libx264 @ 0x561f20df0bc0] Weighted P-Frames: Y:4.8% UV:0.3%
[libx264 @ 0x561f20df0bc0] kb/s:1588.43
[aac @ 0x561f20e05c00] Qavg: 1453.354
[AVIOContext @ 0x561f20d89f40] Statistics: 46114677 bytes read, 1248 seeks
[AVIOContext @ 0x561f20f02e80] Statistics: 93903 bytes read, 0 seeks
[AVIOContext @ 0x561f20ec9fc0] Statistics: 1530915 bytes read, 42 seeks
